<svg width="28" height="40" viewBox="0 0 28 40" fill="none" xmlns="http://www.w3.org/2000/svg">
<g clip-path="url(#clip0_109_1272)">
<path d="M12.2026 3.77425C12.2036 1.69704 13.8953 0 15.9626 0C18.0222 0 19.7158 1.7088 19.7149 3.78405C19.7139 5.85146 18.0086 7.5632 15.9529 7.56222C13.8972 7.56124 12.2017 5.84852 12.2026 3.77425Z" fill="white"/>
<path d="M27.5823 20.4154C27.5823 19.903 27.5531 17.1634 27.5531 17.0292C27.5531 15.5066 27.5764 13.9829 27.5453 12.4613C27.52 11.2179 26.9885 10.2058 25.911 9.57377C23.7142 8.2863 20.9538 9.89418 20.9392 12.4731C20.9178 16.0925 20.9207 16.7735 20.949 20.3929H20.9821C20.984 20.6183 20.985 20.8466 20.9879 21.0798C21.0103 23.69 21.0385 26.9371 20.3912 28.5646C19.3994 30.9641 17.0595 32.8395 14.4276 33.3441C13.1146 33.5959 10.6121 33.7076 8.60509 31.6235C8.58076 31.5981 8.55643 31.5746 8.53015 31.551C6.98838 30.145 6.27784 27.9737 6.62922 25.7427C6.98643 23.4823 8.35008 21.6128 10.2792 20.7437C10.3016 20.7339 10.324 20.7231 10.3464 20.7113C11.3665 20.194 11.5076 19.3063 11.5017 18.8232C11.5017 18.8095 11.5017 18.7958 11.5008 18.7811C11.4852 18.3784 11.491 17.9659 11.4969 17.5299C11.5066 16.8577 11.5163 16.1621 11.4472 15.436C11.4015 14.9598 11.1484 14.5277 10.7571 14.2573C10.3649 13.9869 9.87433 13.9046 9.41588 14.0339C5.47484 15.144 2.25407 18.2432 0.800874 22.3241C-0.634799 26.3561 -0.116984 30.7505 2.18593 34.0858C3.47463 36.0729 5.13417 37.5955 7.11881 38.6116C8.91656 39.5316 10.8954 39.998 13.0036 39.998C13.0464 39.998 13.0883 39.998 13.1311 39.998C18.1263 39.9539 23.0231 37.2379 25.6064 33.0786C25.6278 33.0443 25.6482 33.009 25.6667 32.9728C27.0041 30.4086 27.7185 27.5632 27.5589 20.4135H27.5842L27.5823 20.4154Z" fill="white"/>
<path d="M20.4868 3.77425C20.4878 1.69704 22.1795 0 24.2478 0C26.3074 0 28.001 1.7088 28 3.78405C27.999 5.85146 26.2937 7.5632 24.2381 7.56222C22.1824 7.56124 20.4868 5.84852 20.4878 3.77425H20.4868Z" fill="white"/>
<path d="M19.2846 12.4868C19.306 16.1062 19.3031 19.7266 19.2748 23.3461C19.2709 23.8399 19.1454 24.3719 18.9342 24.8187C18.3687 26.0112 17.408 26.6294 16.1621 26.7333L16.1417 26.7352C14.7186 26.7284 13.6236 26.1111 13.0046 24.805C12.7934 24.3592 12.6678 23.8271 12.6639 23.3323C12.6357 19.7129 12.6328 16.0925 12.6542 12.473C12.6688 9.89515 15.4292 8.28629 17.626 9.57377C18.7035 10.2057 19.2349 11.2179 19.2602 12.4613C19.2914 13.9839 19.268 15.5066 19.268 17.0292C19.268 17.1624 19.2972 21.7637 19.2972 22.2771" fill="white"/>
</g>
<defs>
<clipPath id="clip0_109_1272">
<rect width="28" height="40" fill="white"/>
</clipPath>
</defs>
</svg>
