<svg width="28" height="40" viewBox="0 0 28 40" fill="none" xmlns="http://www.w3.org/2000/svg">
<g clip-path="url(#clip0_125_2279)">
<path d="M12.2026 3.77425C12.2036 1.69704 13.8953 0 15.9626 0C18.0222 0 19.7158 1.7088 19.7149 3.78405C19.7139 5.85146 18.0086 7.5632 15.9529 7.56222C13.8972 7.56124 12.2017 5.84852 12.2026 3.77425Z" fill="#22333B"/>
<path d="M27.5825 20.4154C27.5825 19.903 27.5533 17.1634 27.5533 17.0292C27.5533 15.5066 27.5767 13.9829 27.5455 12.4613C27.5202 11.2179 26.9888 10.2058 25.9113 9.57377C23.7145 8.2863 20.9541 9.89418 20.9395 12.4731C20.9181 16.0925 20.921 16.7735 20.9492 20.3929H20.9823C20.9842 20.6183 20.9852 20.8466 20.9881 21.0798C21.0105 23.69 21.0388 26.9371 20.3915 28.5646C19.3997 30.9641 17.0597 32.8395 14.4278 33.3441C13.1148 33.5959 10.6124 33.7076 8.60534 31.6235C8.58101 31.5981 8.55667 31.5746 8.53039 31.551C6.98862 30.145 6.27809 27.9737 6.62946 25.7427C6.98668 23.4823 8.35032 21.6128 10.2795 20.7437C10.3019 20.7339 10.3243 20.7231 10.3466 20.7113C11.3667 20.194 11.5078 19.3063 11.502 18.8232C11.502 18.8095 11.502 18.7958 11.501 18.7811C11.4854 18.3784 11.4913 17.9659 11.4971 17.5299C11.5069 16.8577 11.5166 16.1621 11.4475 15.436C11.4017 14.9598 11.1487 14.5277 10.7574 14.2573C10.3651 13.9869 9.87457 13.9046 9.41613 14.0339C5.47508 15.144 2.25431 18.2432 0.801118 22.3241C-0.634555 26.3561 -0.11674 30.7505 2.18618 34.0858C3.47488 36.0729 5.13442 37.5955 7.11905 38.6116C8.91681 39.5316 10.8956 39.998 13.0039 39.998C13.0467 39.998 13.0885 39.998 13.1314 39.998C18.1265 39.9539 23.0234 37.2379 25.6066 33.0786C25.628 33.0443 25.6485 33.009 25.667 32.9728C27.0043 30.4086 27.7188 27.5632 27.5591 20.4135H27.5844L27.5825 20.4154Z" fill="#22333B"/>
<path d="M20.4868 3.77425C20.4878 1.69704 22.1795 0 24.2478 0C26.3074 0 28.001 1.7088 28 3.78405C27.999 5.85146 26.2937 7.5632 24.2381 7.56222C22.1824 7.56124 20.4868 5.84852 20.4878 3.77425H20.4868Z" fill="#22333B"/>
<path d="M19.2848 12.4868C19.3062 16.1062 19.3033 19.7266 19.2751 23.3461C19.2712 23.8399 19.1456 24.3719 18.9344 24.8187C18.3689 26.0112 17.4082 26.6294 16.1623 26.7333L16.1419 26.7352C14.7189 26.7284 13.6239 26.1111 13.0048 24.805C12.7936 24.3592 12.6681 23.8271 12.6642 23.3323C12.6359 19.7129 12.633 16.0925 12.6544 12.473C12.669 9.89515 15.4294 8.28629 17.6262 9.57377C18.7037 10.2057 19.2352 11.2179 19.2605 12.4613C19.2916 13.9839 19.2683 15.5066 19.2683 17.0292C19.2683 17.1624 19.2975 21.7637 19.2975 22.2771" fill="#22333B"/>
</g>
<defs>
<clipPath id="clip0_125_2279">
<rect width="28" height="40" fill="white"/>
</clipPath>
</defs>
</svg>
